<svg id="Ebene_1" data-name="Ebene 1" xmlns="http://www.w3.org/2000/svg" viewBox="0 0 841.89 299.53">
  <g id="body">
    <path d="M683.51,94.7v132H655.73l-72.87-84.58v84.58H550V94.7h30.15l70.49,80.7V94.7Z" transform="translate(0)" style="fill: #838385"/>
    <path d="M839.15,103.87v28.82q-25.23-12.19-49.33-12.19-23.25,0-35.82,11.72t-12.56,29.86q0,17.38,12.56,28.16T787.08,201a54.81,54.81,0,0,0,21.83-4.72v-15.4H789.82v-24.2h52.07v54Q834,218.5,818,223.46a106.68,106.68,0,0,1-31.71,5q-34.49,0-56.65-19T707.51,161q0-30.06,22.16-49t57.41-19Q816.18,93,839.15,103.87Z" transform="translate(0)" style="fill: #838385"/>
    <path d="M516.46,94.7v132H483.57V94.7Z" transform="translate(0)" style="fill: #838385"/>
    <path d="M337.15,98.13l65.68-75.77h44.25V226.72H396.17V99.16L341,163.23h-7.64l-55.2-64.07V226.72H227.21V22.36h44.2Z" transform="translate(0)" style="fill: #838385"/>
    <path d="M180.78,0V179.51h46.43v47.21H180.78v72.82H115.37V226.71H0v-47.2L139.07,0ZM52,179.51h63.42V98.68Z" transform="translate(0)" style="fill: #838385"/>
  </g>
  <g id="dot">
    <circle cx="500.93" cy="45.75" r="29.05" style="fill: #bf4330"/>
  </g>
</svg>
